<svg xmlns="http://www.w3.org/2000/svg" viewBox="0 0 1024 1024"><path d="M932.267 226.133c5.507-6.325 8.863-14.649 8.863-23.756a36.101 36.101 0 0 0-6.804-21.152l-12.726 8.641-123.733 72.533-262.4 151.467a19.094 19.094 0 0 1-12.291 4.449 19.26 19.26 0 0 1-2.745-.195l-38.297-21.321 420.267-243.2-10.667-6.4-98.133-55.467c-3.304-2.204-7.365-3.516-11.733-3.516s-8.43 1.313-11.811 3.565L341.335 341.332l-23.467 14.933 4.267 4.267 185.6 113.067c2.162.726 4.651 1.144 7.238 1.144 4.413 0 8.542-1.218 12.068-3.337l386.027-228.208zm-454.4 275.2L96 275.2l-17.067-8.533c-3.739-1.336-8.053-2.108-12.547-2.108-14.98 0-27.956 8.577-34.286 21.088l19.099 10.886 371.2 217.6c12.391 7.613 20.53 21.094 20.53 36.475 0 7.77-2.077 15.056-5.706 21.331L21.333 330.667v17.067c0 36.267 2.133 72.533 2.133 108.8a22.677 22.677 0 0 0-.133 2.497c0 9.12 5.202 17.024 12.801 20.908l388.399 224.062 61.867 36.267c.285-1.603.448-3.449.448-5.333s-.163-3.73-.475-5.524c.028-70.209 2.161-138.476 2.161-208.876.008-.214.012-.465.012-.718 0-7.86-4.25-14.727-10.578-18.428zM537.6 512c-8.533 4.267-8.533 10.667-8.533 19.2v439.467a87.176 87.176 0 0 0-.076 3.692c0 7.01.805 13.833 2.328 20.38 2.987 16.533 17.794 29.361 35.597 29.361.945 0 1.881-.036 2.808-.107.031-2.225.119-4.832.119-7.459s-.088-5.234-.261-7.817l.019-447.65a26.939 26.939 0 0 1-.286-3.975c0-5.667 1.7-10.937 4.617-15.327 11.004-8.022 23.573-15.815 36.739-22.614l1.597 489.917 12.8-8.533 91.733-55.467c8.941-4.123 15.035-13.009 15.035-23.318 0-.803-.037-1.598-.109-2.382l.008-522.566-8.533 4.267zm275.2 83.2c-4.267-2.133-10.667-6.4-10.667-10.667v-44.8l179.2 102.4c.341-2.562.535-5.525.535-8.533s-.195-5.971-.572-8.876c.036-33.791.036-70.057.036-104.191a20.65 20.65 0 0 0 .179-2.756c0-7.927-4.324-14.844-10.741-18.522L778.666 384l-8.533-4.267V608c.903 6.073 4.02 11.289 8.489 14.898L851.2 665.6l64 36.267c6.367 4.359 14.236 6.961 22.713 6.961 16.409 0 30.541-9.751 36.917-23.774l-12.697-8.787zM480 776.533L288 665.6c-1.491-.416-3.202-.654-4.97-.654a19.113 19.113 0 0 0-10.047 2.835l-83.117 46.886-57.6 34.133c-11.624 6.748-19.316 19.136-19.316 33.322a38.242 38.242 0 0 0 8.702 24.345L132.265 800l147.2-85.333c4.267-2.133 10.667-6.4 12.8-4.267l40.533 21.333L157.865 832v4.267l106.667 61.867h12.8l85.333-49.067L482.132 780.8zM288 330.667l192-110.933c3.786-3.046 6.234-7.621 6.399-12.773.001-53.36 2.134-106.694 2.134-162.16.011-.369.017-.803.017-1.238 0-18.593-11.326-34.54-27.455-41.319-15.228-6.51-17.362-4.377-17.362 10.557v164.267c0 8.533 0 19.2-4.267 23.467-9.835 7.294-20.999 14.368-32.67 20.618l-5.73.716V19.202l-100.267 57.6c-10.15 4.272-17.146 14.136-17.146 25.633 0 .739.029 1.472.086 2.196-.006 66.038-.006 130.038-.006 196.171v29.867z"/></svg>